<?xml version="1.0" standalone="no"?>
<!DOCTYPE svg PUBLIC "-//W3C//DTD SVG 20010904//EN"
 "http://www.w3.org/TR/2001/REC-SVG-20010904/DTD/svg10.dtd">
<svg version="1.0" xmlns="http://www.w3.org/2000/svg"
 width="810.000000pt" height="462.000000pt" viewBox="0 0 810.000000 462.000000"
 preserveAspectRatio="xMidYMid meet">

<g transform="translate(0.000000,462.000000) scale(0.100000,-0.100000)"
fill="#000000" stroke="none">
<path d="M0 4605 c0 -13 457 -15 4050 -15 3593 0 4050 2 4050 15 0 13 -457 15
-4050 15 -3593 0 -4050 -2 -4050 -15z"/>
<path d="M4771 4149 c-346 -40 -598 -229 -695 -520 -39 -117 -46 -189 -46
-501 l0 -288 -105 0 -105 0 0 -140 0 -140 105 0 105 0 0 -375 0 -375 -105 0
-105 0 0 -140 0 -140 390 0 391 0 -3 138 -3 137 -137 3 -138 3 0 374 0 375
305 0 305 0 0 -375 0 -375 -105 0 -105 0 0 -140 0 -140 390 0 390 0 0 140 0
140 -140 0 -140 0 0 370 c0 288 3 372 13 375 6 2 164 6 349 10 l337 6 261
-520 260 -521 -150 -300 -150 -300 -155 0 -155 0 0 -140 0 -140 385 0 385 0 0
140 0 140 -85 0 -85 0 410 820 410 820 145 0 145 0 0 140 0 140 -400 0 -400 0
0 -140 0 -140 105 0 c58 0 105 -3 105 -6 0 -3 -58 -119 -129 -258 -71 -138
-153 -311 -182 -384 l-52 -133 -32 83 c-53 139 -92 224 -216 460 -66 125 -119
229 -119 232 0 3 41 6 90 6 l90 0 0 142 0 141 -591 -6 -591 -7 5 302 c4 249 8
313 22 358 28 91 65 152 124 210 90 88 204 138 374 165 l37 6 0 134 c0 74 -3
136 -8 139 -15 9 -187 -16 -270 -40 -284 -82 -467 -267 -543 -549 -20 -72 -23
-110 -27 -402 l-4 -323 -305 0 -305 0 4 308 c4 278 6 313 25 369 55 164 185
280 373 334 36 11 77 19 92 19 58 0 58 0 58 151 0 105 -3 139 -12 138 -7 -1
-46 -5 -87 -10z"/>
<path d="M890 3275 l0 -425 -145 0 -145 0 0 -140 0 -140 145 0 145 0 0 -520 0
-520 275 0 275 0 0 140 0 140 -130 0 -130 0 0 380 0 380 170 0 170 0 0 140 0
140 -170 0 -170 0 0 425 0 425 -145 0 -145 0 0 -425z"/>
<path d="M2480 2870 c-145 -35 -317 -164 -402 -301 l-33 -54 -6 65 c-4 36 -10
111 -14 168 l-7 102 -242 -2 -241 -3 -3 -137 -3 -138 121 0 120 0 0 -380 0
-380 -135 0 -135 0 0 -140 0 -140 385 0 385 0 0 140 0 140 -111 0 -111 0 4
228 c4 201 6 233 25 279 62 154 201 254 381 271 l67 7 10 143 c11 157 15 148
-55 132z"/>
<path d="M3085 2865 c-326 -60 -565 -346 -565 -675 0 -203 101 -412 258 -535
70 -56 176 -109 262 -132 93 -25 274 -23 357 4 73 24 173 79 226 125 l38 33
-87 103 c-47 56 -89 102 -94 102 -4 0 -15 -10 -26 -21 -29 -33 -129 -76 -193
-84 -75 -9 -161 8 -236 44 -65 33 -145 106 -130 119 6 5 215 84 465 176 250
92 459 171 463 175 4 4 -2 37 -14 72 -91 265 -272 449 -488 495 -80 17 -143
16 -236 -1z m255 -301 c26 -14 65 -43 86 -65 l37 -38 -24 -9 c-13 -5 -152 -57
-309 -115 -157 -58 -294 -109 -304 -113 -18 -7 -19 -4 -13 44 7 62 45 144 91
197 103 120 311 167 436 99z"/>
</g>
</svg>
