<?xml version="1.0" encoding="UTF-8" standalone="no" ?>
<!DOCTYPE svg PUBLIC "-//W3C//DTD SVG 1.1//EN" "http://www.w3.org/Graphics/SVG/1.1/DTD/svg11.dtd">
<svg xmlns="http://www.w3.org/2000/svg" xmlns:xlink="http://www.w3.org/1999/xlink" version="1.1" width="1080" height="1080" viewBox="0 0 1080 1080" xml:space="preserve">
<desc>Created with Fabric.js 5.2.4</desc>
<defs>
</defs>
<g transform="matrix(1 0 0 1 540 540)" id="48d3e73a-6409-414d-8a3e-344b0debf19e"  >
<rect style="stroke: none; stroke-width: 1; stroke-dasharray: none; stroke-linecap: butt; stroke-dashoffset: 0; stroke-linejoin: miter; stroke-miterlimit: 4; fill: rgb(255,255,255); fill-rule: nonzero; opacity: 1; visibility: hidden;" vector-effect="non-scaling-stroke"  x="-540" y="-540" rx="0" ry="0" width="1080" height="1080" />
</g>
<g transform="matrix(1 0 0 1 540 540)" id="da522146-d28f-4abf-8ba0-316298cad620"  >
</g>
<g transform="matrix(1 0 0 1 540 540)"  >
<g style="" vector-effect="non-scaling-stroke"   >
		<g transform="matrix(0.13 0 0 -0.13 0 -262.67)"  >
<path style="stroke: none; stroke-width: 1; stroke-dasharray: none; stroke-linecap: butt; stroke-dashoffset: 0; stroke-linejoin: miter; stroke-miterlimit: 4; fill: rgb(255,255,255); fill-rule: nonzero; opacity: 1;" vector-effect="non-scaling-stroke"  transform=" translate(-4050, -4605)" d="M 0 4605 C 0 4592 457 4590 4050 4590 C 7643 4590 8100 4592 8100 4605 C 8100 4618 7643 4620 4050 4620 C 457 4620 0 4618 0 4605 z" stroke-linecap="round" />
</g>
		<g transform="matrix(0.13 0 0 -0.13 217.33 30.73)"  >
<path style="stroke: none; stroke-width: 1; stroke-dasharray: none; stroke-linecap: butt; stroke-dashoffset: 0; stroke-linejoin: miter; stroke-miterlimit: 4; fill: rgb(255,255,255); fill-rule: nonzero; opacity: 1;" vector-effect="non-scaling-stroke"  transform=" translate(-5680, -2404.51)" d="M 4771 4149 C 4425 4109 4173 3920 4076 3629 C 4037 3512 4030 3440 4030 3128 L 4030 2840 L 3925 2840 L 3820 2840 L 3820 2700 L 3820 2560 L 3925 2560 L 4030 2560 L 4030 2185 L 4030 1810 L 3925 1810 L 3820 1810 L 3820 1670 L 3820 1530 L 4210 1530 L 4601 1530 L 4598 1668 L 4595 1805 L 4458 1808 L 4320 1811 L 4320 2185 L 4320 2560 L 4625 2560 L 4930 2560 L 4930 2185 L 4930 1810 L 4825 1810 L 4720 1810 L 4720 1670 L 4720 1530 L 5110 1530 L 5500 1530 L 5500 1670 L 5500 1810 L 5360 1810 L 5220 1810 L 5220 2180 C 5220 2468 5223 2552 5233 2555 C 5239 2557 5397 2561 5582 2565 L 5919 2571 L 6180 2051 L 6440 1530 L 6290 1230 L 6140 930 L 5985 930 L 5830 930 L 5830 790 L 5830 650 L 6215 650 L 6600 650 L 6600 790 L 6600 930 L 6515 930 L 6430 930 L 6840 1750 L 7250 2570 L 7395 2570 L 7540 2570 L 7540 2710 L 7540 2850 L 7140 2850 L 6740 2850 L 6740 2710 L 6740 2570 L 6845 2570 C 6903 2570 6950 2567 6950 2564 C 6950 2561 6892 2445 6821 2306 C 6750 2168 6668 1995 6639 1922 L 6587 1789 L 6555 1872 C 6502 2011 6463 2096 6339 2332 C 6273 2457 6220 2561 6220 2564 C 6220 2567 6261 2570 6310 2570 L 6400 2570 L 6400 2712 L 6400 2853 L 5809 2847 L 5218 2840 L 5223 3142 C 5227 3391 5231 3455 5245 3500 C 5273 3591 5310 3652 5369 3710 C 5459 3798 5573 3848 5743 3875 L 5780 3881 L 5780 4015 C 5780 4089 5777 4151 5772 4154 C 5757 4163 5585 4138 5502 4114 C 5218 4032 5035 3847 4959 3565 C 4939 3493 4936 3455 4932 3163 L 4928 2840 L 4623 2840 L 4318 2840 L 4322 3148 C 4326 3426 4328 3461 4347 3517 C 4402 3681 4532 3797 4720 3851 C 4756 3862 4797 3870 4812 3870 C 4870 3870 4870 3870 4870 4021 C 4870 4126 4867 4160 4858 4159 C 4851 4158 4812 4154 4771 4149 z" stroke-linecap="round" />
</g>
		<g transform="matrix(0.13 0 0 -0.13 -398.67 2.67)"  >
<path style="stroke: none; stroke-width: 1; stroke-dasharray: none; stroke-linecap: butt; stroke-dashoffset: 0; stroke-linejoin: miter; stroke-miterlimit: 4; fill: rgb(255,255,255); fill-rule: nonzero; opacity: 1;" vector-effect="non-scaling-stroke"  transform=" translate(-1060, -2615)" d="M 890 3275 L 890 2850 L 745 2850 L 600 2850 L 600 2710 L 600 2570 L 745 2570 L 890 2570 L 890 2050 L 890 1530 L 1165 1530 L 1440 1530 L 1440 1670 L 1440 1810 L 1310 1810 L 1180 1810 L 1180 2190 L 1180 2570 L 1350 2570 L 1520 2570 L 1520 2710 L 1520 2850 L 1350 2850 L 1180 2850 L 1180 3275 L 1180 3700 L 1035 3700 L 890 3700 L 890 3275 z" stroke-linecap="round" />
</g>
		<g transform="matrix(0.13 0 0 -0.13 -270.59 57.45)"  >
<path style="stroke: none; stroke-width: 1; stroke-dasharray: none; stroke-linecap: butt; stroke-dashoffset: 0; stroke-linejoin: miter; stroke-miterlimit: 4; fill: rgb(255,255,255); fill-rule: nonzero; opacity: 1;" vector-effect="non-scaling-stroke"  transform=" translate(-2020.61, -2204.15)" d="M 2480 2870 C 2335 2835 2163 2706 2078 2569 L 2045 2515 L 2039 2580 C 2035 2616 2029 2691 2025 2748 L 2018 2850 L 1776 2848 L 1535 2845 L 1532 2708 L 1529 2570 L 1650 2570 L 1770 2570 L 1770 2190 L 1770 1810 L 1635 1810 L 1500 1810 L 1500 1670 L 1500 1530 L 1885 1530 L 2270 1530 L 2270 1670 L 2270 1810 L 2159 1810 L 2048 1810 L 2052 2038 C 2056 2239 2058 2271 2077 2317 C 2139 2471 2278 2571 2458 2588 L 2525 2595 L 2535 2738 C 2546 2895 2550 2886 2480 2870 z" stroke-linecap="round" />
</g>
		<g transform="matrix(0.13 0 0 -0.13 -117.05 59.09)"  >
<path style="stroke: none; stroke-width: 1; stroke-dasharray: none; stroke-linecap: butt; stroke-dashoffset: 0; stroke-linejoin: miter; stroke-miterlimit: 4; fill: rgb(255,255,255); fill-rule: nonzero; opacity: 1;" vector-effect="non-scaling-stroke"  transform=" translate(-3172.12, -2191.85)" d="M 3085 2865 C 2759 2805 2520 2519 2520 2190 C 2520 1987 2621 1778 2778 1655 C 2848 1599 2954 1546 3040 1523 C 3133 1498 3314 1500 3397 1527 C 3470 1551 3570 1606 3623 1652 L 3661 1685 L 3574 1788 C 3527 1844 3485 1890 3480 1890 C 3476 1890 3465 1880 3454 1869 C 3425 1836 3325 1793 3261 1785 C 3186 1776 3100 1793 3025 1829 C 2960 1862 2880 1935 2895 1948 C 2901 1953 3110 2032 3360 2124 C 3610 2216 3819 2295 3823 2299 C 3827 2303 3821 2336 3809 2371 C 3718 2636 3537 2820 3321 2866 C 3241 2883 3178 2882 3085 2865 z M 3340 2564 C 3366 2550 3405 2521 3426 2499 L 3463 2461 L 3439 2452 C 3426 2447 3287 2395 3130 2337 C 2973 2279 2836 2228 2826 2224 C 2808 2217 2807 2220 2813 2268 C 2820 2330 2858 2412 2904 2465 C 3007 2585 3215 2632 3340 2564 z" stroke-linecap="round" />
</g>
</g>
</g>
</svg>